<svg width="63" height="62" viewBox="0 0 63 62" fill="none" xmlns="http://www.w3.org/2000/svg">
<circle cx="31" cy="31.5" r="26.5" fill="#425CEC"/>
<mask id="path-2-inside-1_1510_266" fill="white">
<path d="M60.7837 32.7163C61.1593 26.3082 59.4225 19.9537 55.8397 14.6275C52.2569 9.30125 47.026 5.29726 40.949 3.22955L40.3333 5.0391C46.0143 6.97207 50.9044 10.7152 54.2537 15.6943C57.6031 20.6735 59.2267 26.6139 58.8756 32.6045L60.7837 32.7163Z"/>
</mask>
<path d="M60.7837 32.7163C61.1593 26.3082 59.4225 19.9537 55.8397 14.6275C52.2569 9.30125 47.026 5.29726 40.949 3.22955L40.3333 5.0391C46.0143 6.97207 50.9044 10.7152 54.2537 15.6943C57.6031 20.6735 59.2267 26.6139 58.8756 32.6045L60.7837 32.7163Z" fill="#425CEC" stroke="#425CEC" stroke-width="2" mask="url(#path-2-inside-1_1510_266)"/>
<path d="M28 25L34.1667 31.1667L28 37.3333" stroke="#FFFAFA" stroke-opacity="0.95" stroke-width="1.5" stroke-linecap="round" stroke-linejoin="round"/>
</svg>
