<svg width="20" height="18" viewBox="0 0 20 18" fill="none" xmlns="http://www.w3.org/2000/svg">
<path d="M15.75 6.5C15.75 7.64631 15.1311 8.70316 14.0926 9.48198C13.0541 10.2609 11.608 10.75 10 10.75C8.39201 10.75 6.94587 10.2609 5.90736 9.48198C4.86893 8.70316 4.25 7.64631 4.25 6.5C4.25 5.35369 4.86893 4.29684 5.90736 3.51802C6.94587 2.73914 8.39201 2.25 10 2.25C11.608 2.25 13.0541 2.73914 14.0926 3.51802C15.1311 4.29684 15.75 5.35369 15.75 6.5Z" stroke="#4F4F4F" stroke-width="0.5"/>
<path d="M16.75 7.5C16.75 10.9347 13.7457 13.75 10 13.75C6.25431 13.75 3.25 10.9347 3.25 7.5C3.25 4.06534 6.25431 1.25 10 1.25C13.7457 1.25 16.75 4.06534 16.75 7.5Z" stroke="#4F4F4F" stroke-width="0.5"/>
<path d="M14.5 8H5.5C5.75 8.44637 6.25 9.47303 6.25 10.0087C6.25 10.5443 6.17157 14.9119 6.17157 16.9206C7.15426 17.1272 8.09264 16.8861 8.5 16.7042C9.25 16.4811 11.05 16.1686 12.25 16.7042C12.7546 16.9295 13.2769 17.0048 13.75 16.9998V10.0087C13.75 9.47303 14.25 8.44637 14.5 8Z" fill="white"/>
<path d="M13.75 16.9998C13.75 14.9911 13.75 10.5443 13.75 10.0087C13.75 9.47303 14.25 8.44637 14.5 8H5.5C5.75 8.44637 6.25 9.47303 6.25 10.0087C6.25 10.5443 6.17157 14.9119 6.17157 16.9206M1 16.7042C2 16.4811 4.3 16.1686 5.5 16.7042C6.7 17.2399 8 16.9274 8.5 16.7042C9.25 16.4811 11.05 16.1686 12.25 16.7042C13.45 17.2399 14.75 16.9274 15.25 16.7042C16 16.4811 17.8 16.1686 19 16.7042" stroke="#4F4F4F" stroke-width="0.7"/>
<line x1="10.25" y1="10" x2="10.25" y2="15" stroke="#4F4F4F" stroke-width="0.5"/>
<line x1="12.25" y1="11" x2="12.25" y2="15" stroke="#4F4F4F" stroke-width="0.5"/>
<line x1="12.25" y1="9" x2="12.25" y2="10" stroke="#4F4F4F" stroke-width="0.5"/>
<line x1="8.25" y1="9" x2="8.25" y2="10" stroke="#4F4F4F" stroke-width="0.5"/>
<line x1="8.25" y1="11" x2="8.25" y2="15" stroke="#4F4F4F" stroke-width="0.5"/>
</svg>
