<svg width="16" height="16" viewBox="0 0 16 16" fill="none" xmlns="http://www.w3.org/2000/svg">
<path d="M8.75407 0.33964C8.55406 0.122169 8.28282 0 8 0C7.71718 0 7.44594 0.122169 7.24593 0.33964L0.156394 8.04918C0.106811 8.1031 0.0674796 8.16713 0.0406455 8.23759C0.0138113 8.30804 0 8.38356 0 8.45983C0 8.53609 0.0138113 8.61161 0.0406455 8.68207C0.0674796 8.75253 0.106811 8.81655 0.156394 8.87048C0.256531 8.97939 0.392347 9.04057 0.533962 9.04057C0.604083 9.04057 0.673517 9.02555 0.7383 8.99637C0.803084 8.96718 0.861947 8.9244 0.91153 8.87048L1.60054 8.11994V14.26C1.60054 14.7214 1.7691 15.164 2.06913 15.4904C2.36916 15.8167 2.77609 16 3.2004 16H12.7996C13.2239 16 13.6308 15.8167 13.9309 15.4904C14.2309 15.164 14.3995 14.7214 14.3995 14.26V8.11994L15.0885 8.87048C15.1886 8.97939 15.3244 9.04057 15.466 9.04057C15.6077 9.04057 15.7435 8.97939 15.8436 8.87048C15.9437 8.76157 16 8.61385 16 8.45983C16 8.3058 15.9437 8.15809 15.8436 8.04918L13.3329 5.31963V1.49967C13.3329 1.34584 13.2767 1.19831 13.1767 1.08954C13.0767 0.980762 12.941 0.919653 12.7996 0.919653H11.733C11.5916 0.919653 11.4559 0.980762 11.3559 1.08954C11.2559 1.19831 11.1997 1.34584 11.1997 1.49967V2.99958L8.75407 0.33964ZM13.3329 6.95991V14.26C13.3329 14.4138 13.2767 14.5613 13.1767 14.6701C13.0767 14.7789 12.941 14.84 12.7996 14.84H3.2004C3.05897 14.84 2.92332 14.7789 2.82331 14.6701C2.7233 14.5613 2.66712 14.4138 2.66712 14.26V6.95991L8 1.15978L13.3329 6.95991Z" fill="#4F4F4F"/>
</svg>
