<svg width="16" height="16" viewBox="0 0 16 16" fill="none" xmlns="http://www.w3.org/2000/svg">
<path fill-rule="evenodd" clip-rule="evenodd" d="M15.5 0.916829C11.6322 0.916829 7.92291 2.45328 5.18801 5.18819C2.4531 7.92309 0.916646 11.6324 0.916646 15.5002C0.916646 15.6107 0.872747 15.7166 0.794607 15.7948C0.716467 15.8729 0.610487 15.9168 0.49998 15.9168C0.389473 15.9168 0.283492 15.8729 0.205352 15.7948C0.127212 15.7166 0.083313 15.6107 0.083313 15.5002C0.083313 11.4114 1.70756 7.49012 4.59875 4.59893C7.48994 1.70775 11.4112 0.0834961 15.5 0.0834961C15.6105 0.0834961 15.7165 0.127395 15.7946 0.205535C15.8727 0.283675 15.9166 0.389656 15.9166 0.500163C15.9166 0.61067 15.8727 0.71665 15.7946 0.79479C15.7165 0.872931 15.6105 0.916829 15.5 0.916829Z" fill="#4F4F4F"/>
<path fill-rule="evenodd" clip-rule="evenodd" d="M13.99 4.35171C13.6795 4.39338 13.372 4.44838 13.0679 4.51588L12.8879 3.70213C13.2154 3.62966 13.5458 3.57086 13.8783 3.52588L13.99 4.35171ZM11.2808 5.07088C10.7014 5.30524 10.1425 5.58747 9.60995 5.91463L9.17412 5.20463C9.74597 4.85325 10.3461 4.55012 10.9683 4.29838L11.2808 5.07088ZM8.10287 7.0238C7.63203 7.43463 7.19622 7.88396 6.79995 8.36713L6.15537 7.8388C6.58111 7.31988 7.04925 6.83724 7.55495 6.39588L8.10287 7.0238ZM5.73745 9.90838C5.42694 10.4507 5.16213 11.0179 4.94578 11.6042L4.16412 11.3155C4.39638 10.6857 4.6807 10.0764 5.01412 9.49379L5.73745 9.90838ZM4.44578 13.4075C4.38768 13.7144 4.34236 14.0236 4.30995 14.3342L3.4812 14.2475C3.5162 13.913 3.56453 13.5809 3.62703 13.2525L4.44578 13.4075ZM12.4704 8.18588C13.4309 7.78807 14.4603 7.58334 15.5 7.58338C15.6105 7.58338 15.7164 7.62728 15.7946 7.70542C15.8727 7.78356 15.9166 7.88954 15.9166 8.00005C15.9166 8.11055 15.8727 8.21653 15.7946 8.29467C15.7164 8.37281 15.6105 8.41671 15.5 8.41671C13.6213 8.41671 11.8197 9.16299 10.4913 10.4914C9.1629 11.8198 8.41662 13.6214 8.41662 15.5C8.41662 15.6106 8.37272 15.7165 8.29458 15.7947C8.21644 15.8728 8.11046 15.9167 7.99995 15.9167C7.88944 15.9167 7.78346 15.8728 7.70532 15.7947C7.62718 15.7165 7.58328 15.6106 7.58328 15.5C7.58326 13.9343 8.04755 12.4036 8.91745 11.1017C9.78734 9.7998 11.0238 8.78508 12.4704 8.18588Z" fill="#4F4F4F"/>
</svg>
