<svg width="24" height="26" viewBox="0 0 24 26" fill="none" xmlns="http://www.w3.org/2000/svg">
<path d="M8.57152 10.2683C8.32652 10.3772 8.63652 10.5673 8.80802 10.5684C8.88606 10.5797 8.96546 10.5702 9.03935 10.5407C9.11323 10.5113 9.17938 10.4628 9.23207 10.3994C9.28476 10.336 9.3224 10.2597 9.34173 10.177C9.36107 10.0944 9.36151 10.0078 9.34303 9.92492C9.18953 9.45638 8.46452 9.26788 7.89952 9.41575C7.08502 9.62971 6.77102 10.3583 7.08052 10.9319C7.48652 11.6859 8.70502 11.9697 9.66302 11.6528C10.855 11.259 11.296 10.1568 10.763 9.29279C10.123 8.25659 8.40802 7.87796 7.06852 8.36221C5.50352 8.92825 4.93602 10.4027 5.69102 11.5505C6.55702 12.8656 8.76602 13.339 10.4795 12.6885C12.4145 11.9545 13.107 10.1102 12.1315 8.68396C11.044 7.092 8.34602 6.52488 6.26252 7.33954C3.96152 8.23925 3.14502 10.4493 4.33752 12.1528C5.64402 14.0183 8.82752 14.678 11.2775 13.7009C13.941 12.6376 14.881 10.0641 13.4725 8.08704C11.949 5.94963 8.28352 5.19671 5.47102 6.33638C2.44602 7.56163 1.38352 10.4964 3.00702 12.7448C4.03952 14.1754 6.00402 15.1352 8.15502 15.295" stroke="#4F4F4F" stroke-width="0.75" stroke-linecap="round" stroke-linejoin="round"/>
<path d="M8.155 15.2951H21.75V20.1934H8.12C4.811 20.1934 2.2525 17.8047 2.2525 14.683V10.3974M4.7955 19.1523V17.9282M6.491 19.8874V17.438M8.1865 20.1934V18.9693M9.882 20.1934V17.744M11.577 20.1934V18.9693M13.273 20.1934V17.744M14.968 20.1934V18.9693M18.359 20.1934V18.9693M16.664 20.1934V17.744M20.0545 20.1934V17.744M14.1205 15.2339V9.90771" stroke="#4F4F4F" stroke-width="0.75" stroke-linecap="round" stroke-linejoin="round"/>
</svg>
