<svg width="130" height="20" viewBox="0 0 130 20" fill="none" xmlns="http://www.w3.org/2000/svg">
<path d="M2 11.3334V15.3334C2 16.0698 2.59695 16.6667 3.33333 16.6667H12.6667C13.4031 16.6667 14 16.0698 14 15.3334V11.3334" stroke="#4F4F4F" stroke-linecap="round" stroke-linejoin="round"/>
<path d="M7.99984 13.3333V4M7.99984 4L4.6665 7.62964M7.99984 4L11.3332 7.62963" stroke="#4F4F4F" stroke-linecap="round" stroke-linejoin="round"/>
<path d="M22.324 5.242V11.416C22.324 12.284 22.534 12.928 22.954 13.348C23.3833 13.768 23.976 13.978 24.732 13.978C25.4787 13.978 26.062 13.768 26.482 13.348C26.9113 12.928 27.126 12.284 27.126 11.416V5.242H28.4V11.402C28.4 12.214 28.2367 12.9 27.91 13.46C27.5833 14.0107 27.14 14.4213 26.58 14.692C26.0293 14.9627 25.4087 15.098 24.718 15.098C24.0273 15.098 23.402 14.9627 22.842 14.692C22.2913 14.4213 21.8527 14.0107 21.526 13.46C21.2087 12.9 21.05 12.214 21.05 11.402V5.242H22.324ZM31.9393 8.742C32.1913 8.30333 32.5646 7.93933 33.0593 7.65C33.5633 7.35133 34.1466 7.202 34.8093 7.202C35.4906 7.202 36.1066 7.36533 36.6573 7.692C37.2173 8.01867 37.6559 8.48067 37.9733 9.078C38.2906 9.666 38.4493 10.352 38.4493 11.136C38.4493 11.9107 38.2906 12.6013 37.9733 13.208C37.6559 13.8147 37.2173 14.286 36.6573 14.622C36.1066 14.958 35.4906 15.126 34.8093 15.126C34.1559 15.126 33.5773 14.9813 33.0733 14.692C32.5786 14.3933 32.2006 14.0247 31.9393 13.586V18.64H30.6653V7.328H31.9393V8.742ZM37.1473 11.136C37.1473 10.5573 37.0306 10.0533 36.7973 9.624C36.5639 9.19467 36.2466 8.868 35.8453 8.644C35.4533 8.42 35.0193 8.308 34.5433 8.308C34.0766 8.308 33.6426 8.42467 33.2413 8.658C32.8493 8.882 32.5319 9.21333 32.2893 9.652C32.0559 10.0813 31.9393 10.5807 31.9393 11.15C31.9393 11.7287 32.0559 12.2373 32.2893 12.676C32.5319 13.1053 32.8493 13.4367 33.2413 13.67C33.6426 13.894 34.0766 14.006 34.5433 14.006C35.0193 14.006 35.4533 13.894 35.8453 13.67C36.2466 13.4367 36.5639 13.1053 36.7973 12.676C37.0306 12.2373 37.1473 11.724 37.1473 11.136ZM41.5402 4.64V15H40.2662V4.64H41.5402ZM47.1975 15.126C46.4788 15.126 45.8255 14.9627 45.2375 14.636C44.6588 14.3093 44.2015 13.8473 43.8655 13.25C43.5388 12.6433 43.3755 11.9433 43.3755 11.15C43.3755 10.366 43.5435 9.67533 43.8795 9.078C44.2248 8.47133 44.6915 8.00933 45.2795 7.692C45.8675 7.36533 46.5255 7.202 47.2535 7.202C47.9815 7.202 48.6395 7.36533 49.2275 7.692C49.8155 8.00933 50.2775 8.46667 50.6135 9.064C50.9588 9.66133 51.1315 10.3567 51.1315 11.15C51.1315 11.9433 50.9542 12.6433 50.5995 13.25C50.2542 13.8473 49.7828 14.3093 49.1855 14.636C48.5882 14.9627 47.9255 15.126 47.1975 15.126ZM47.1975 14.006C47.6548 14.006 48.0842 13.8987 48.4855 13.684C48.8868 13.4693 49.2088 13.1473 49.4515 12.718C49.7035 12.2887 49.8295 11.766 49.8295 11.15C49.8295 10.534 49.7082 10.0113 49.4655 9.582C49.2228 9.15267 48.9055 8.83533 48.5135 8.63C48.1215 8.41533 47.6968 8.308 47.2395 8.308C46.7728 8.308 46.3435 8.41533 45.9515 8.63C45.5688 8.83533 45.2608 9.15267 45.0275 9.582C44.7942 10.0113 44.6775 10.534 44.6775 11.15C44.6775 11.7753 44.7895 12.3027 45.0135 12.732C45.2468 13.1613 45.5548 13.4833 45.9375 13.698C46.3202 13.9033 46.7402 14.006 47.1975 14.006ZM52.4706 11.136C52.4706 10.352 52.6293 9.666 52.9466 9.078C53.2639 8.48067 53.6979 8.01867 54.2486 7.692C54.8086 7.36533 55.4293 7.202 56.1106 7.202C56.7826 7.202 57.3659 7.34667 57.8606 7.636C58.3553 7.92533 58.7239 8.28933 58.9666 8.728V7.328H60.2546V15H58.9666V13.572C58.7146 14.02 58.3366 14.3933 57.8326 14.692C57.3379 14.9813 56.7593 15.126 56.0966 15.126C55.4153 15.126 54.7993 14.958 54.2486 14.622C53.6979 14.286 53.2639 13.8147 52.9466 13.208C52.6293 12.6013 52.4706 11.9107 52.4706 11.136ZM58.9666 11.15C58.9666 10.5713 58.8499 10.0673 58.6166 9.638C58.3833 9.20867 58.0659 8.882 57.6646 8.658C57.2726 8.42467 56.8386 8.308 56.3626 8.308C55.8866 8.308 55.4526 8.42 55.0606 8.644C54.6686 8.868 54.3559 9.19467 54.1226 9.624C53.8893 10.0533 53.7726 10.5573 53.7726 11.136C53.7726 11.724 53.8893 12.2373 54.1226 12.676C54.3559 13.1053 54.6686 13.4367 55.0606 13.67C55.4526 13.894 55.8866 14.006 56.3626 14.006C56.8386 14.006 57.2726 13.894 57.6646 13.67C58.0659 13.4367 58.3833 13.1053 58.6166 12.676C58.8499 12.2373 58.9666 11.7287 58.9666 11.15ZM62.0715 11.136C62.0715 10.352 62.2302 9.666 62.5475 9.078C62.8649 8.48067 63.2989 8.01867 63.8495 7.692C64.4095 7.36533 65.0349 7.202 65.7255 7.202C66.3229 7.202 66.8782 7.342 67.3915 7.622C67.9049 7.89267 68.2969 8.252 68.5675 8.7V4.64H69.8555V15H68.5675V13.558C68.3155 14.0153 67.9422 14.3933 67.4475 14.692C66.9529 14.9813 66.3742 15.126 65.7115 15.126C65.0302 15.126 64.4095 14.958 63.8495 14.622C63.2989 14.286 62.8649 13.8147 62.5475 13.208C62.2302 12.6013 62.0715 11.9107 62.0715 11.136ZM68.5675 11.15C68.5675 10.5713 68.4509 10.0673 68.2175 9.638C67.9842 9.20867 67.6669 8.882 67.2655 8.658C66.8735 8.42467 66.4395 8.308 65.9635 8.308C65.4875 8.308 65.0535 8.42 64.6615 8.644C64.2695 8.868 63.9569 9.19467 63.7235 9.624C63.4902 10.0533 63.3735 10.5573 63.3735 11.136C63.3735 11.724 63.4902 12.2373 63.7235 12.676C63.9569 13.1053 64.2695 13.4367 64.6615 13.67C65.0535 13.894 65.4875 14.006 65.9635 14.006C66.4395 14.006 66.8735 13.894 67.2655 13.67C67.6669 13.4367 67.9842 13.1053 68.2175 12.676C68.4509 12.2373 68.5675 11.7287 68.5675 11.15ZM81.1673 8.742C81.4193 8.30333 81.7926 7.93933 82.2873 7.65C82.7913 7.35133 83.3746 7.202 84.0373 7.202C84.7186 7.202 85.3346 7.36533 85.8853 7.692C86.4453 8.01867 86.884 8.48067 87.2013 9.078C87.5186 9.666 87.6773 10.352 87.6773 11.136C87.6773 11.9107 87.5186 12.6013 87.2013 13.208C86.884 13.8147 86.4453 14.286 85.8853 14.622C85.3346 14.958 84.7186 15.126 84.0373 15.126C83.384 15.126 82.8053 14.9813 82.3013 14.692C81.8066 14.3933 81.4286 14.0247 81.1673 13.586V18.64H79.8933V7.328H81.1673V8.742ZM86.3753 11.136C86.3753 10.5573 86.2586 10.0533 86.0253 9.624C85.792 9.19467 85.4746 8.868 85.0733 8.644C84.6813 8.42 84.2473 8.308 83.7713 8.308C83.3046 8.308 82.8706 8.42467 82.4693 8.658C82.0773 8.882 81.76 9.21333 81.5173 9.652C81.284 10.0813 81.1673 10.5807 81.1673 11.15C81.1673 11.7287 81.284 12.2373 81.5173 12.676C81.76 13.1053 82.0773 13.4367 82.4693 13.67C82.8706 13.894 83.3046 14.006 83.7713 14.006C84.2473 14.006 84.6813 13.894 85.0733 13.67C85.4746 13.4367 85.792 13.1053 86.0253 12.676C86.2586 12.2373 86.3753 11.724 86.3753 11.136ZM90.1523 6.082C89.9096 6.082 89.7043 5.998 89.5363 5.83C89.3683 5.662 89.2843 5.45667 89.2843 5.214C89.2843 4.97133 89.3683 4.766 89.5363 4.598C89.7043 4.43 89.9096 4.346 90.1523 4.346C90.3856 4.346 90.5816 4.43 90.7403 4.598C90.9083 4.766 90.9923 4.97133 90.9923 5.214C90.9923 5.45667 90.9083 5.662 90.7403 5.83C90.5816 5.998 90.3856 6.082 90.1523 6.082ZM90.7683 7.328V15H89.4943V7.328H90.7683ZM92.6036 11.15C92.6036 10.3567 92.7622 9.666 93.0796 9.078C93.3969 8.48067 93.8356 8.01867 94.3956 7.692C94.9649 7.36533 95.6136 7.202 96.3416 7.202C97.2842 7.202 98.0589 7.43067 98.6656 7.888C99.2816 8.34533 99.6876 8.98 99.8836 9.792H98.5116C98.3809 9.32533 98.1242 8.95667 97.7416 8.686C97.3682 8.41533 96.9016 8.28 96.3416 8.28C95.6136 8.28 95.0256 8.532 94.5776 9.036C94.1296 9.53067 93.9056 10.2353 93.9056 11.15C93.9056 12.074 94.1296 12.788 94.5776 13.292C95.0256 13.796 95.6136 14.048 96.3416 14.048C96.9016 14.048 97.3682 13.9173 97.7416 13.656C98.1149 13.3947 98.3716 13.0213 98.5116 12.536H99.8836C99.6782 13.32 99.2676 13.95 98.6516 14.426C98.0356 14.8927 97.2656 15.126 96.3416 15.126C95.6136 15.126 94.9649 14.9627 94.3956 14.636C93.8356 14.3093 93.3969 13.8473 93.0796 13.25C92.7622 12.6527 92.6036 11.9527 92.6036 11.15ZM103.277 8.378V12.9C103.277 13.2733 103.357 13.5393 103.515 13.698C103.674 13.8473 103.949 13.922 104.341 13.922H105.279V15H104.131C103.422 15 102.89 14.8367 102.535 14.51C102.181 14.1833 102.003 13.6467 102.003 12.9V8.378H101.009V7.328H102.003V5.396H103.277V7.328H105.279V8.378H103.277ZM113.767 7.328V15H112.493V13.866C112.25 14.258 111.91 14.566 111.471 14.79C111.042 15.0047 110.566 15.112 110.043 15.112C109.446 15.112 108.909 14.9907 108.433 14.748C107.957 14.496 107.579 14.1227 107.299 13.628C107.028 13.1333 106.893 12.5313 106.893 11.822V7.328H108.153V11.654C108.153 12.41 108.344 12.9933 108.727 13.404C109.11 13.8053 109.632 14.006 110.295 14.006C110.976 14.006 111.513 13.796 111.905 13.376C112.297 12.956 112.493 12.3447 112.493 11.542V7.328H113.767ZM117.332 8.574C117.556 8.13533 117.873 7.79467 118.284 7.552C118.704 7.30933 119.213 7.188 119.81 7.188V8.504H119.474C118.046 8.504 117.332 9.27867 117.332 10.828V15H116.058V7.328H117.332V8.574ZM128.421 10.87C128.421 11.1127 128.407 11.3693 128.379 11.64H122.247C122.293 12.396 122.55 12.9887 123.017 13.418C123.493 13.838 124.067 14.048 124.739 14.048C125.289 14.048 125.747 13.922 126.111 13.67C126.484 13.4087 126.745 13.0633 126.895 12.634H128.267C128.061 13.3713 127.651 13.9733 127.035 14.44C126.419 14.8973 125.653 15.126 124.739 15.126C124.011 15.126 123.357 14.9627 122.779 14.636C122.209 14.3093 121.761 13.8473 121.435 13.25C121.108 12.6433 120.945 11.9433 120.945 11.15C120.945 10.3567 121.103 9.66133 121.421 9.064C121.738 8.46667 122.181 8.00933 122.751 7.692C123.329 7.36533 123.992 7.202 124.739 7.202C125.467 7.202 126.111 7.36067 126.671 7.678C127.231 7.99533 127.66 8.434 127.959 8.994C128.267 9.54467 128.421 10.17 128.421 10.87ZM127.105 10.604C127.105 10.1187 126.997 9.70333 126.783 9.358C126.568 9.00333 126.274 8.73733 125.901 8.56C125.537 8.37333 125.131 8.28 124.683 8.28C124.039 8.28 123.488 8.48533 123.031 8.896C122.583 9.30667 122.326 9.876 122.261 10.604H127.105Z" fill="#4F4F4F"/>
</svg>
